<svg width="69" height="67" viewBox="0 0 69 67" fill="none" xmlns="http://www.w3.org/2000/svg">
<rect width="69" height="67" fill="#FF751F"/>
<path d="M47.1691 31.492L46.7088 31.643C47.0727 37.0848 44.8186 42.469 40.3494 47.047L37.2899 50.1809L33.1278 5.97656L33.0771 5.43901L32.7 5.82536L11.8211 27.2121L11.6827 27.3539L11.7891 27.5211L16.7779 35.3566L17.2382 35.2056C16.8742 29.7621 19.0559 24.3781 23.5606 19.7638L26.7648 16.4817L30.6713 61.0218L30.7188 61.5643L31.0992 61.1746L52.1259 39.6364L52.2643 39.4947L52.1579 39.3275L47.1691 31.492ZM39.471 26.5995L49.6762 28.783C49.6763 28.783 49.6765 28.783 49.6766 28.7831C53.3048 29.5714 55.5359 30.2386 56.8629 31.1085L57.25 31.3622V30.8994V25.0256V24.674L56.9179 24.7895C56.2371 25.0264 55.3501 25.0984 54.1753 25.0117C53.0023 24.9251 51.5613 24.682 49.7818 24.3034C49.7816 24.3034 49.7814 24.3034 49.7813 24.3033L45.1193 23.2921C45.1191 23.292 45.1189 23.292 45.1188 23.292C41.5749 22.504 39.3528 21.7822 37.9495 20.6703L37.5443 20.3491V20.8662V34.8621V35.064L37.7416 35.1065L42.4333 36.1182L42.6497 35.685C40.5744 33.8862 39.471 31.2065 39.471 27.9766V26.5995Z" fill="black" stroke="black" stroke-width="0.5"/>
</svg>
