<svg width="61" height="61" viewBox="0 0 61 61" fill="none" xmlns="http://www.w3.org/2000/svg">
<path d="M33.0926 44.7352C36.5433 41.2846 38.2969 37.2116 38.0141 33.0821L41.8324 38.937L25.7387 55.0307L22.7123 21.3442L19.9687 24.0877C16.4897 27.5667 14.7927 31.6396 15.0755 35.7691L11.2571 29.9143L27.2378 13.9337L30.4622 47.3657L33.0926 44.7352Z" fill="white"/>
<mask id="path-2-outside-1_193_209" maskUnits="userSpaceOnUse" x="30" y="24" width="17" height="13" fill="black">
<rect fill="white" x="30" y="24" width="17" height="13"/>
<path d="M32.092 29.095L32.092 30.355C32.092 32.812 32.953 34.87 34.591 36.256L31 35.5L31 25.042C32.113 25.903 33.856 26.449 36.565 27.037L40.135 27.793C42.865 28.36 44.587 28.528 45.7 28.15L45.7 32.539C44.65 31.867 42.907 31.363 40.135 30.775L32.092 29.095Z"/>
</mask>
<path d="M32.092 29.095L32.092 30.355C32.092 32.812 32.953 34.87 34.591 36.256L31 35.5L31 25.042C32.113 25.903 33.856 26.449 36.565 27.037L40.135 27.793C42.865 28.36 44.587 28.528 45.7 28.15L45.7 32.539C44.65 31.867 42.907 31.363 40.135 30.775L32.092 29.095Z" fill="white"/>
<path d="M32.092 29.095L32.1942 28.6056L31.592 28.4798L31.592 29.095L32.092 29.095ZM34.591 36.256L34.488 36.7453L34.914 35.8743L34.591 36.256ZM31 35.5L30.5 35.5L30.5 35.9057L30.897 35.9893L31 35.5ZM31 25.042L31.3059 24.6465L30.5 24.0231L30.5 25.042L31 25.042ZM36.565 27.037L36.4589 27.5256L36.4614 27.5262L36.565 27.037ZM40.135 27.793L40.0314 28.2822L40.0333 28.2826L40.135 27.793ZM45.7 28.15L46.2 28.15L46.2 27.4521L45.5392 27.6766L45.7 28.15ZM45.7 32.539L45.4305 32.9601L46.2 33.4526L46.2 32.539L45.7 32.539ZM40.135 30.775L40.2388 30.2859L40.2372 30.2856L40.135 30.775ZM31.592 29.095L31.592 30.355L32.592 30.355L32.592 29.095L31.592 29.095ZM31.592 30.355C31.592 32.9325 32.499 35.1408 34.268 36.6377L34.914 35.8743C33.407 34.5992 32.592 32.6915 32.592 30.355L31.592 30.355ZM34.694 35.7667L31.103 35.0107L30.897 35.9893L34.488 36.7453L34.694 35.7667ZM31.5 35.5L31.5 25.042L30.5 25.042L30.5 35.5L31.5 35.5ZM30.6941 25.4375C31.9084 26.3769 33.7601 26.9398 36.4589 27.5256L36.6711 26.5484C33.9519 25.9582 32.3176 25.4291 31.3059 24.6465L30.6941 25.4375ZM36.4614 27.5262L40.0314 28.2822L40.2386 27.3038L36.6686 26.5478L36.4614 27.5262ZM40.0333 28.2826C41.4054 28.5675 42.5439 28.7566 43.4879 28.8246C44.4284 28.8923 45.2135 28.8433 45.8608 28.6234L45.5392 27.6766C45.0735 27.8347 44.4411 27.8907 43.5598 27.8272C42.6821 27.7639 41.5946 27.5855 40.2367 27.3034L40.0333 28.2826ZM45.2 28.15L45.2 32.539L46.2 32.539L46.2 28.15L45.2 28.15ZM45.9695 32.1179C44.8307 31.389 42.9971 30.871 40.2388 30.2859L40.0312 31.2641C42.8169 31.855 44.4693 32.345 45.4305 32.9601L45.9695 32.1179ZM40.2372 30.2856L32.1942 28.6056L31.9898 29.5844L40.0328 31.2644L40.2372 30.2856Z" fill="white" mask="url(#path-2-outside-1_193_209)"/>
</svg>
