<svg width="69" height="67" viewBox="0 0 69 67" fill="none" xmlns="http://www.w3.org/2000/svg">
<rect width="69" height="67" fill="white"/>
<path d="M39.0926 44.2206C42.5433 40.7699 44.2969 36.697 44.0141 32.5675L47.8324 38.4223L31.7387 54.5161L28.7123 20.8295L25.9687 23.5731C22.4897 27.052 20.7927 31.125 21.0755 35.2545L17.2571 29.3996L33.2378 13.419L36.4622 46.851L39.0926 44.2206Z" fill="black"/>
<mask id="path-3-outside-1_847_39" maskUnits="userSpaceOnUse" x="36" y="23.4854" width="17" height="13" fill="black">
<rect fill="white" x="36" y="23.4854" width="17" height="13"/>
<path d="M38.092 28.5804L38.092 29.8404C38.092 32.2974 38.953 34.3554 40.591 35.7414L37 34.9854L37 24.5274C38.113 25.3884 39.856 25.9344 42.565 26.5224L46.135 27.2784C48.865 27.8454 50.587 28.0134 51.7 27.6354L51.7 32.0244C50.65 31.3524 48.907 30.8484 46.135 30.2604L38.092 28.5804Z"/>
</mask>
<path d="M38.092 28.5804L38.092 29.8404C38.092 32.2974 38.953 34.3554 40.591 35.7414L37 34.9854L37 24.5274C38.113 25.3884 39.856 25.9344 42.565 26.5224L46.135 27.2784C48.865 27.8454 50.587 28.0134 51.7 27.6354L51.7 32.0244C50.65 31.3524 48.907 30.8484 46.135 30.2604L38.092 28.5804Z" fill="black"/>
<path d="M38.092 28.5804L38.1942 28.0909L37.592 27.9651L37.592 28.5804L38.092 28.5804ZM40.591 35.7414L40.488 36.2306L40.914 35.3597L40.591 35.7414ZM37 34.9854L36.5 34.9854L36.5 35.391L36.897 35.4746L37 34.9854ZM37 24.5274L37.3059 24.1319L36.5 23.5084L36.5 24.5274L37 24.5274ZM42.565 26.5224L42.4589 27.011L42.4614 27.0115L42.565 26.5224ZM46.135 27.2784L46.0314 27.7675L46.0333 27.7679L46.135 27.2784ZM51.7 27.6354L52.2 27.6354L52.2 26.9375L51.5392 27.1619L51.7 27.6354ZM51.7 32.0244L51.4305 32.4455L52.2 32.938L52.2 32.0244L51.7 32.0244ZM46.135 30.2604L46.2388 29.7712L46.2372 29.7709L46.135 30.2604ZM37.592 28.5804L37.592 29.8404L38.592 29.8404L38.592 28.5804L37.592 28.5804ZM37.592 29.8404C37.592 32.4179 38.499 34.6261 40.268 36.123L40.914 35.3597C39.407 34.0846 38.592 32.1768 38.592 29.8404L37.592 29.8404ZM40.694 35.2521L37.103 34.4961L36.897 35.4746L40.488 36.2306L40.694 35.2521ZM37.5 34.9854L37.5 24.5274L36.5 24.5274L36.5 34.9854L37.5 34.9854ZM36.6941 24.9228C37.9084 25.8622 39.7601 26.4252 42.4589 27.011L42.6711 26.0337C39.9519 25.4435 38.3176 24.9145 37.3059 24.1319L36.6941 24.9228ZM42.4614 27.0115L46.0314 27.7675L46.2386 26.7892L42.6686 26.0332L42.4614 27.0115ZM46.0333 27.7679C47.4054 28.0529 48.5439 28.2419 49.4879 28.3099C50.4284 28.3777 51.2135 28.3286 51.8608 28.1088L51.5392 27.1619C51.0735 27.3201 50.4411 27.376 49.5598 27.3125C48.6821 27.2493 47.5946 27.0708 46.2367 26.7888L46.0333 27.7679ZM51.2 27.6354L51.2 32.0244L52.2 32.0244L52.2 27.6354L51.2 27.6354ZM51.9695 31.6032C50.8307 30.8744 48.9971 30.3563 46.2388 29.7712L46.0312 30.7495C48.8169 31.3404 50.4693 31.8303 51.4305 32.4455L51.9695 31.6032ZM46.2372 29.7709L38.1942 28.0909L37.9898 29.0698L46.0328 30.7498L46.2372 29.7709Z" fill="black" mask="url(#path-3-outside-1_847_39)"/>
</svg>
